<svg width="26" height="26" viewBox="0 0 26 26" fill="none" xmlns="http://www.w3.org/2000/svg">
<path d="M13.6432 13.8569C13.6432 13.4998 13.3575 13.1427 12.9289 13.1427H12.7861C10.3575 13.1427 8.35748 11.1427 8.35748 8.71409C8.35748 6.28552 10.3575 4.28552 12.7861 4.28552C15.2146 4.28552 17.2146 6.28552 17.2146 8.71409V9.92838C17.2146 10.3569 16.7861 10.7141 16.3575 10.6427C16.0003 10.6427 15.6432 10.2855 15.6432 9.92838V8.71409C15.6432 7.14266 14.3575 5.78552 12.7861 5.78552C11.2146 5.78552 9.85748 7.07123 9.85748 8.64266C9.85748 10.2141 11.1432 11.5712 12.7146 11.5712C13.3575 11.5712 14.0003 11.3569 14.5003 10.9284C15.0718 11.9998 16.4289 12.3569 17.4289 11.7855C18.1432 11.4284 18.5718 10.6427 18.5718 9.85695V8.64266C18.5718 5.42838 15.9289 2.78552 12.7146 2.78552C9.50034 2.78552 6.85748 5.42838 6.85748 8.64266C6.92891 11.9998 9.57177 14.5712 12.7861 14.5712H12.9289C13.2861 14.5712 13.6432 14.2855 13.6432 13.8569ZM12.7861 10.2141C11.9289 10.2141 11.2861 9.57123 11.2861 8.71409C11.2861 7.85695 11.9289 7.21409 12.7861 7.21409C13.6432 7.21409 14.2861 7.85695 14.2861 8.71409C14.2861 9.57123 13.6432 10.2141 12.7861 10.2141Z" fill="black"/>
<path d="M25.3571 9.92857L21.9286 7V1.92857C21.9286 0.857141 21.0714 0 20 0H5.71429C4.64285 0 3.78571 0.857141 3.78571 1.92857V6.85714L0.214283 9.85714C0.0714259 10 0 10.2143 0 10.3571V23.5C0 24.9286 1.07143 26 2.42857 26H23.1429C24.5 26 25.5714 24.9286 25.5714 23.5714V10.4286C25.5714 10.2143 25.5 10 25.3571 9.92857ZM5.21428 1.92857C5.21428 1.64286 5.42857 1.35714 5.71428 1.35714H19.9286C20.2143 1.35714 20.5 1.57143 20.5 1.92857V12.7143L12.8571 18.1429L5.21428 12.7143V1.92857ZM24.2143 23.5714C24.2143 24.1429 23.7143 24.6429 23.1429 24.6429H2.42857C1.85714 24.6429 1.35714 24.1429 1.35714 23.5714V11.7143L9.28571 17.3571L3.64286 21.6429C3.35714 21.8571 3.28571 22.2857 3.5 22.6429C3.78571 22.9286 4.21428 23 4.5 22.7857L10.5 18.2143L12.4286 19.5714C12.6429 19.7143 13 19.7143 13.2143 19.5714L15.1429 18.2143L21.1429 22.7857C21.4286 23 21.8571 22.9286 22.1429 22.6429C22.4286 22.3571 22.2857 21.9286 22 21.6429L16.3571 17.3571L24.2143 11.8571V23.5714Z" fill="black"/>
</svg>
