<svg width="26" height="26" viewBox="0 0 26 26" fill="none" xmlns="http://www.w3.org/2000/svg">
<g clip-path="url(#clip0_122_359)">
<path fill-rule="evenodd" clip-rule="evenodd" d="M13.6293 25.5129H1.40992C0.631108 25.5129 0 24.8818 0 24.103V1.40992C0 0.631108 0.631108 0 1.40992 0H24.103C24.8818 0 25.5129 0.631108 25.5129 1.40992V24.103C25.5129 24.8818 24.8818 25.5129 24.103 25.5129H17.6039V15.6327H20.9206L21.4174 11.7829H17.6039V9.32563C17.6039 8.21112 17.9127 7.44976 19.5106 7.44976H21.5517V4.00418C21.1985 3.95718 19.9873 3.85245 18.5801 3.85245C15.6394 3.85245 13.6279 5.6464 13.6279 8.94159V11.7816H10.2991V15.6313H13.6252V25.5129H13.6293Z" fill="black"/>
</g>
<defs>
<clipPath id="clip0_122_359">
<rect width="25.5129" height="25.5129" fill="white"/>
</clipPath>
</defs>
</svg>
