<svg width="25" height="25" viewBox="0 0 25 25" fill="none" xmlns="http://www.w3.org/2000/svg">
<path fill-rule="evenodd" clip-rule="evenodd" d="M12.6285 0C5.90315 0 0.450924 5.45211 0.450924 12.1782C0.450924 14.4788 1.0894 16.6308 2.19825 18.4664L0.000244141 25L6.74252 22.8415C8.48734 23.806 10.4936 24.3563 12.6285 24.3563C19.3548 24.3563 24.8067 18.9035 24.8067 12.1782C24.8067 5.45211 19.3548 0 12.6285 0ZM12.6285 22.3159C10.5697 22.3159 8.65216 21.6982 7.05114 20.6397L3.15532 21.8868L4.42159 18.1222C3.20801 16.4506 2.49103 14.3971 2.49103 12.1782C2.49103 6.58778 7.03884 2.03976 12.6285 2.03976C18.219 2.03976 22.7666 6.58778 22.7666 12.1782C22.7666 17.7681 18.219 22.3159 12.6285 22.3159ZM18.3385 14.9451C18.0332 14.7779 16.5337 13.9687 16.2524 13.8543C15.9713 13.7402 15.7661 13.6807 15.5469 13.9841C15.328 14.2868 14.7059 14.9647 14.5173 15.1655C14.328 15.3662 14.1458 15.385 13.8403 15.2174C13.5358 15.0507 12.5462 14.6846 11.3985 13.5814C10.5055 12.7228 9.91981 11.6818 9.74988 11.3641C9.57988 11.046 9.74866 10.884 9.9101 10.7351C10.0551 10.6008 10.2347 10.3833 10.397 10.2078C10.5587 10.0323 10.6159 9.90475 10.7272 9.70115C10.8384 9.49753 10.7937 9.31403 10.7215 9.15565C10.6495 8.99768 10.0852 7.44432 9.84944 6.81244C9.61378 6.18056 9.35115 6.27455 9.16968 6.26735C8.98835 6.26111 8.78209 6.22701 8.57475 6.21941C8.36753 6.21152 8.02762 6.27685 7.7313 6.57704C7.43479 6.87736 6.6035 7.59917 6.54625 9.12917C6.489 10.6582 7.54733 12.1782 7.6949 12.391C7.84261 12.6044 9.71586 15.9199 12.8289 17.2833C15.9427 18.6464 15.959 18.2309 16.5303 18.2003C17.1019 18.1702 18.3976 17.5168 18.6841 16.8011C18.9704 16.0853 18.9933 15.4629 18.9205 15.3304C18.8476 15.1979 18.6436 15.1119 18.3385 14.9451Z" fill="white"/>
</svg>
