<svg width="26" height="25" viewBox="0 0 26 25" fill="none" xmlns="http://www.w3.org/2000/svg">
<path d="M12.7564 2.22274C16.1449 2.22274 16.5435 2.22274 17.9387 2.28625C19.2011 2.34975 19.8655 2.54027 20.3306 2.73079C20.9285 2.92131 21.3272 3.23885 21.7923 3.61989C22.2573 4.06444 22.5231 4.44548 22.7224 5.01704C22.9217 5.46159 23.1211 6.09666 23.1875 7.30329C23.2539 8.57342 23.2539 8.95447 23.2539 12.2568C23.2539 15.4957 23.2539 15.8767 23.1875 17.2104C23.1211 18.417 22.9217 19.0521 22.7224 19.4966C22.5231 20.0682 22.1909 20.4492 21.7923 20.8938C21.3272 21.3383 20.9285 21.5923 20.3306 21.7828C19.8655 21.9734 19.2011 22.1639 17.9387 22.2274C16.61 22.2909 16.2113 22.2909 12.7564 22.2909C9.36801 22.2909 8.96937 22.2909 7.57414 22.2274C6.31178 22.1639 5.64738 21.9734 5.1823 21.7828C4.58435 21.5923 4.18571 21.2748 3.72063 20.8938C3.25555 20.4492 2.98979 20.0682 2.79047 19.4966C2.59115 19.0521 2.39183 18.417 2.32539 17.2104C2.25895 15.9402 2.25895 15.5592 2.25895 12.2568C2.25895 9.01797 2.25895 8.63693 2.32539 7.30329C2.45827 6.09666 2.65759 5.46159 2.79047 5.01704C2.98979 4.44548 3.32199 4.06444 3.72063 3.61989C4.18571 3.17534 4.65079 2.92131 5.24874 2.66729C5.71382 2.47677 6.37822 2.28625 7.64058 2.22274C8.96937 2.22274 9.36801 2.22274 12.7564 2.22274ZM12.7564 0C9.30157 0 8.83649 -2.36581e-08 7.5077 0.0635068C6.11246 0.127014 5.1823 0.317534 4.38503 0.635068C3.58775 0.952603 2.85691 1.39715 2.12607 2.03222C1.39524 2.66729 0.996597 3.42937 0.664398 4.19145C0.332199 4.95353 0.13288 5.84263 0.0664398 7.17627C-2.47508e-08 8.44641 0 8.89096 0 12.1933C0 15.4957 -2.47508e-08 15.9402 0.0664398 17.2104C0.13288 18.4805 0.332199 19.3696 0.664398 20.1952C0.996597 20.9573 1.46168 21.6558 2.12607 22.3544C2.85691 23.053 3.52131 23.434 4.38503 23.7516C5.1823 24.0691 6.11246 24.2596 7.5077 24.3231C8.83649 24.3866 9.30157 24.3866 12.7564 24.3866C16.2113 24.3866 16.6764 24.3866 18.0052 24.3231C19.334 24.2596 20.2641 24.0691 21.1279 23.7516C21.9916 23.434 22.656 23.053 23.3868 22.3544C24.1176 21.6558 24.5163 21.0208 24.8485 20.1952C25.1807 19.4331 25.38 18.544 25.4464 17.2104C25.5129 15.9402 25.5129 15.4957 25.5129 12.1933C25.5129 8.89096 25.5129 8.44641 25.4464 7.17627C25.38 5.90614 25.1807 5.01704 24.8485 4.19145C24.5163 3.42937 24.0512 2.73079 23.3868 2.03222C22.7224 1.33364 21.9916 0.952603 21.1279 0.635068C20.3306 0.317534 19.4004 0.127014 18.0052 0.0635068C16.6764 -2.36581e-08 16.2113 0 12.7564 0Z" fill="white"/>
<path d="M12.7568 5.90625C9.16904 5.90625 6.17924 8.70055 6.17924 12.1934C6.17924 15.6228 9.1026 18.4806 12.7568 18.4806C16.3445 18.4806 19.3343 15.6863 19.3343 12.1934C19.3343 8.76406 16.3445 5.90625 12.7568 5.90625ZM12.7568 16.2579C10.4314 16.2579 8.50464 14.4162 8.50464 12.1934C8.50464 9.97069 10.4314 8.12899 12.7568 8.12899C15.0822 8.12899 17.0089 9.97069 17.0089 12.1934C17.0089 14.4162 15.0822 16.2579 12.7568 16.2579Z" fill="white"/>
<path d="M21.128 5.7153C21.128 6.54069 20.4636 7.17561 19.5999 7.17561C18.7362 7.17561 18.0718 6.54069 18.0718 5.7153C18.0718 4.88991 18.7362 4.25499 19.5999 4.25499C20.3972 4.1915 21.128 4.88991 21.128 5.7153Z" fill="white"/>
</svg>
